<?xml version="1.0" encoding="UTF-8" standalone="no"?>
<svg
   xmlns:dc="http://purl.org/dc/elements/1.1/"
   xmlns:cc="http://creativecommons.org/ns#"
   xmlns:rdf="http://www.w3.org/1999/02/22-rdf-syntax-ns#"
   xmlns:svg="http://www.w3.org/2000/svg"
   xmlns="http://www.w3.org/2000/svg"
   xmlns:sodipodi="http://sodipodi.sourceforge.net/DTD/sodipodi-0.dtd"
   xmlns:inkscape="http://www.inkscape.org/namespaces/inkscape"
   width="1000.0001"
   height="657.14587"
   viewBox="0 0 1000.0001 657.14587"
   version="1.1"
   id="svg16"
   sodipodi:docname="logo-live-clean-header.svg"
   inkscape:version="0.92.4 (5da689c313, 2019-01-14)">
  <metadata
     id="metadata22">
    <rdf:RDF>
      <cc:Work
         rdf:about="">
        <dc:format>image/svg+xml</dc:format>
        <dc:type
           rdf:resource="http://purl.org/dc/dcmitype/StillImage" />
        <dc:title></dc:title>
      </cc:Work>
    </rdf:RDF>
  </metadata>
  <defs
     id="defs20" />
  <sodipodi:namedview
     pagecolor="#ffffff"
     bordercolor="#111111"
     borderopacity="1"
     objecttolerance="10"
     gridtolerance="10"
     guidetolerance="10"
     inkscape:pageopacity="0"
     inkscape:pageshadow="2"
     inkscape:window-width="1920"
     inkscape:window-height="1017"
     id="namedview18"
     showgrid="false"
     fit-margin-top="0"
     fit-margin-left="0"
     fit-margin-right="0"
     fit-margin-bottom="0"
     inkscape:zoom="0.54685127"
     inkscape:cx="741.83674"
     inkscape:cy="131.57621"
     inkscape:window-x="1912"
     inkscape:window-y="-8"
     inkscape:window-maximized="1"
     inkscape:current-layer="svg16" />
  <path
     d="m 447.25635,91.09537 c -0.51429,-1.06667 -1.42857,-1.88572 -2.55239,-2.24762 -39.42862,-12.77145 -51.42864,18.1905 -51.5715,18.41907 -11.14287,32.44767 -21.29527,65.60009 -31.07623,97.60014 l -23.9048,78.08583 -23.6667,-77.34297 c -9.88573,-32.30481 -20.09527,-65.74295 -31.36195,-98.343 0,-0.33333 -12.14288,-31.30481 -51.5715,-18.41907 -1.10477,0.38095 -2.02858,1.18095 -2.55239,2.24762 -0.50476,1.07619 -0.57143,2.30476 -0.17143,3.42857 l 17.44765,49.27627 c 3.59048,10.72382 7.6381,22.09527 11.65716,33.15242 4.00953,11.04764 8.09525,22.60956 11.75239,33.40958 6.80954,20.0286 13.98098,39.2572 20.93337,57.81913 6.95239,18.57145 14.33335,38.12386 21.07622,58.26675 0.8381,2.44762 2.04762,4.75239 3.58096,6.81906 l 0.3619,0.51428 c 5.30477,6.20001 13.12383,9.52383 21.14289,8.98097 h 2.19048 c 8.15239,0.70476 16.14288,-2.6381 21.50479,-8.98097 1.69524,-2.20953 3.00001,-4.70477 3.8762,-7.37144 6.80953,-20.10479 14.04764,-39.43815 21.03812,-58.11437 6.99049,-18.66669 14.33336,-37.90481 20.96194,-57.93341 3.59048,-10.76192 7.6762,-22.09527 11.72382,-33.15243 4.04763,-11.04764 8.06668,-22.54289 11.68574,-33.14291 l 17.45716,-49.32388 c 0.52381,-1.14286 0.53334,-2.47619 0.0381,-3.64762 z M 32.255751,9.52382 c -2.019051,0 -3.666672,1.90477 -3.68572,4.26668 v 296.74328 c 0,0.33333 0.780953,32.32386 34.381002,32.32386 0.980954,0 1.923812,-0.45715 2.619051,-1.26667 0.704763,-0.81905 1.09524,-1.92382 1.09524,-3.06667 V 41.87625 C 66.722464,41.55244 65.941513,9.52382 32.255751,9.52382 Z M 180.81787,115.2954 c -0.60952,-5.99048 -4.84763,-25.71432 -32.32386,-28.73337 -3.50476,-0.57143 -7.05715,-0.84762 -10.61906,-0.84762 -1.20952,0.019 -2.37143,0.47619 -3.2381,1.28571 -0.8381,0.82858 -1.30476,1.93334 -1.30476,3.08572 v 220.50508 c 0.83809,10.85716 7.09525,20.64765 16.81907,26.31433 7.96192,4.32381 17.05717,6.37143 26.20956,5.88572 h 0.30476 c 2.35239,-0.15238 4.19049,-1.98096 4.26668,-4.22858 0.0476,-199.80981 0,-220.80032 -0.11429,-223.26699 z M 150.22735,60.83818 c 7.93334,4.15239 17.00002,6.16192 26.14289,5.78096 h 0.38096 c 2.28572,-0.17143 4.07619,-1.84762 4.2,-3.92381 V 37.91434 c -0.61904,-5.71429 -4.85715,-24.53337 -32.33338,-27.40956 -3.54286,-0.61905 -7.14286,-0.94286 -10.74287,-0.98096 -1.20952,0.01 -2.37143,0.45715 -3.2381,1.22858 -0.8381,0.79047 -1.30476,1.84762 -1.30476,2.94286 v 22.04765 c 0.85714,10.36192 7.14286,19.70479 16.89526,25.09527 z m 422.88632,24.87623 c -65.63819,0 -106.44777,51.09531 -106.44777,133.3621 0,79.80011 39.40006,123.76208 110.90492,123.76208 12.80002,0.21905 25.58099,-1.30477 37.98101,-4.52382 15.90478,-3.82858 30.12385,-12.87621 40.44768,-25.73337 3.28572,-4.4 4.82857,-9.90477 4.31429,-15.40002 -1.02857,-6.40953 -4.66668,-12.08573 -10.00002,-15.65717 -1.80952,-1.40952 -4.4,-1.10476 -5.8381,0.69524 -15.32383,19.32384 -38.43815,30.57148 -62.8858,30.61909 -44.9715,0 -67.37153,-28.7048 -68.42867,-87.70488 h 146.64783 c 1.80952,0 3.4381,-1.16191 4.05714,-2.90477 2.09525,-7.61906 3.02858,-15.52383 2.75239,-23.44765 0,-71.79058 -34.06672,-113.06683 -93.5049,-113.06683 z m -59.19056,110.82873 c 4.02858,-55.61913 22.9048,-81.57155 59.19056,-81.57155 34.64767,0 51.49531,25.1429 51.49531,76.89535 v 4.66668 H 513.92311 Z M 241.7132,342.85764 c -1.00001,0 -1.95239,0.46666 -2.66667,1.28571 -0.64762,0.85715 -0.99048,1.97143 -0.95239,3.11429 v 277.79088 c 0,0.33333 0.8,32.09528 34.31434,32.09528 1.00952,0 1.98095,-0.46666 2.68572,-1.28571 0.70476,-0.82858 1.10476,-1.95239 1.09524,-3.11429 V 374.98149 c 0,-0.31428 -0.92381,-32.12385 -34.47624,-32.12385 z m -51.6096,267.80038 c -0.24762,-1.45714 -6.21906,-13.9905 -10.99049,-15.18097 -1.74286,-0.39048 -3.57144,0.20952 -4.76192,1.5619 -5.61905,7.04763 -12.28573,13.16193 -19.74288,18.15241 l -0.69524,0.37143 c -12.00954,7.56191 -25.91432,11.42859 -40.04768,11.16192 -28.647658,0 -66.752475,-9.93335 -66.752475,-95.92395 0,-31.61909 2.638099,-63.60009 21.723841,-83.34297 16.047642,-16.5905 45.657214,-19.63813 66.571524,-14.09526 13.80954,3.80953 26.36194,11.30478 36.34291,21.71431 1.67619,1.60001 4.29524,1.60001 5.97144,0 4.8762,-4.09524 7.84763,-10.05715 8.20953,-16.47621 -0.0952,-5.52382 -2.19048,-10.80954 -5.86667,-14.87621 -12.38097,-12.06669 -28.18099,-19.87622 -45.1715,-22.31432 -21.90479,-3.06667 -44.209584,-1.12381 -65.285805,5.69525 -23.704796,8.20001 -43.257205,25.58099 -54.400078,48.34292 -12.6762088,25.66671 -17.4762157,57.95247 -14.21906818,95.88586 1.14285878,17.34288 5.35238868,34.3429 12.41906518,50.1715 6.857153,14.7143 17.400025,27.36194 30.552425,36.66672 17.085739,12.16192 38.800056,18.60002 64.523901,18.97145 h 2.6381 c 16.70479,0 39.4572,-2.6381 57.80961,-14.28573 5.90477,-3.86668 24.36194,-15.65717 21.17146,-32.20005 z m 759.2868,-181.8955 c -6.13334,-8.23811 -14.26668,-14.76192 -23.61908,-18.92384 -21.20955,-9.0762 -44.66673,-11.39049 -67.20962,-6.6381 -18.92383,3.73334 -33.33338,9.69525 -44.21911,18.6286 -1.37143,-4.19048 -3.68572,-8.02859 -6.77144,-11.17145 -7.66667,-7.82858 -18.51431,-9.61906 -26.25718,-10.28573 -2.95238,-0.25714 -6.4762,-1.08571 -8.62858,1.0762 -0.80953,0.82857 -1.26667,1.93333 -1.25715,3.09524 v 220.06698 c 0.74286,10.83811 6.66668,20.64765 15.88574,26.3048 7.35239,4.40953 15.80955,6.55239 24.36194,6.19049 0.54286,0 1.08572,-0.10477 1.6,-0.30477 0.67619,-0.21904 1.29524,-0.6 1.80953,-1.11428 0.82857,-0.82858 1.29524,-1.95239 1.29524,-3.13334 V 455.14351 c 5.33334,-5.28572 23.21908,-20.1905 54.76198,-20.1905 27.781,0 42.3334,12.70478 45.80959,39.42862 v 149.80974 c 0.19048,3.39049 0.95238,6.7143 2.25715,9.83811 2.40953,8.45716 10.33335,22.69527 36.73338,22.69527 h 1.48572 c 2.42858,0 4.40001,-1.99047 4.40001,-4.4381 V 469.56258 c 0.70476,-14.63812 -3.69525,-29.06671 -12.43812,-40.80006 z M 430.31347,400.00057 c -65.80962,0 -106.50492,51.10484 -106.50492,133.31448 0,79.81917 39.42863,123.80018 110.98111,123.80018 12.80002,0.26667 25.58099,-1.20953 38.00006,-4.40001 15.89526,-3.8381 30.09528,-12.84763 40.42863,-25.6286 3.31429,-4.42858 4.85715,-9.9524 4.32381,-15.47622 -1,-6.40953 -4.62857,-12.09525 -9.99049,-15.66669 -1.85714,-1.43809 -4.51429,-1.12381 -5.99048,0.70477 -15.27621,19.28574 -38.40958,30.5429 -62.88581,30.59052 -44.83816,0 -67.18105,-28.64766 -68.25724,-87.55251 H 516.8755 c 1.86667,0 3.52381,-1.2 4.10476,-2.98096 2.13334,-7.61906 3.06668,-15.54288 2.78096,-23.45717 0.0667,-71.95249 -34.04767,-113.24779 -93.44775,-113.24779 z m -59.19056,110.74302 c 4.02857,-55.50484 22.89527,-81.39059 59.19056,-81.39059 34.59052,0 51.38102,25.1048 51.38102,76.76201 0,1.57143 0,3.20953 -0.19047,4.62858 z m 362.21004,-35.77148 c 0,-51.61912 -32.40005,-64.17152 -33.42862,-64.54295 -34.60005,-16.24764 -73.6382,-8.73334 -75.08582,-8.43811 -36.4572,5.39049 -51.08579,22.29527 -51.61912,23.03813 -4.79049,4.81906 -7.23811,11.42859 -6.7143,18.13336 0.98096,6.26668 4.34287,11.93335 9.41906,15.86669 1.89524,1.4 4.57144,1.10476 6.1143,-0.66667 8.42858,-9.81906 19.18098,-17.47621 31.33338,-22.29527 34.19052,-12.44763 56.97151,-1.44762 57.35246,-1.22857 18.9905,8.28573 17.20002,29.20957 17.08574,30.55243 v 40.28577 c -40.36196,4.0381 -144.93354,16.81907 -144.93354,88.17155 0,2.40953 0.12381,4.80953 0.38095,7.20954 4.33334,41.36196 46.79054,56.07627 81.80964,56.07627 32.89529,0 53.17151,-12.60002 64.57152,-23.22861 4.01906,11.46669 14.11431,19.8667 26.31433,21.92384 4.21905,0.89524 8.52382,1.33334 12.83811,1.30477 2.49524,-0.019 4.50477,-1.99048 4.52382,-4.42858 z m -45.58102,57.38104 v 66.78104 c -12.58097,17.28574 -32.84766,27.64766 -54.53341,27.90481 -27.31432,0 -42.95244,-13.63812 -42.95244,-37.4572 0.0286,-31.33338 31.01909,-49.64769 97.52395,-57.33342 l -0.0381,0.0952 z"
     id="path6"
     inkscape:connector-curvature="0"
     style="fill:#007865;fill-rule:nonzero;stroke-width:9.52382278"
     sodipodi:nodetypes="cccccccccccccccccccccccccccscsscscsccccsccccccccccccccsccssccccccccsccscsscccsccssccssccccccscccccccccccccsccccccccccccccsscscccsssccssccccccccsccscsscccccccccccccscscccccccccccc" />
  <path
     d="M 999.78095,205.25744 C 997.24762,152.36212 967.23805,119.09541 935.51419,83.82869 920.0856,66.71438 893.88556,26.40004 880.25697,4.92382 878.34268,1.85714 875.00935,0 871.42839,0 c -3.59048,0 -6.92382,1.85714 -8.83811,4.92382 -13.61907,21.48574 -39.67625,61.74294 -55.25722,78.90487 -31.72386,35.26672 -61.69533,68.53343 -64.26676,121.46684 -0.19048,3.40953 -0.25715,6.52382 -0.19048,9.56192 1.18096,60.34295 43.98102,113.4954 102.23824,125.31447 37.94292,7.90477 77.40012,-1.86667 107.42873,-26.60956 C 982.58093,288.81946 1000,251.72417 1000,212.55269 c 0,-2.28572 -0.0761,-4.66668 -0.21905,-7.29525 z M 876.5522,87.57155 c -0.019,-1.04762 0.61905,-1.98095 1.58096,-2.34286 0.97143,-0.35238 2.05714,-0.0571 2.70476,0.74286 6.89525,8.00001 13.74288,15.67621 20.38099,23.04765 8.38096,9.29526 15.90478,17.74289 22.53336,25.93337 1.2381,1.56191 1.8,3.57144 1.55239,5.55239 -0.25715,2.00001 -1.28572,3.80001 -2.8762,5.00001 l -40.30482,30.15242 c -1.0381,0.76191 -2.40953,0.88572 -3.55239,0.29524 -1.14285,-0.58095 -1.86666,-1.77143 -1.86666,-3.06667 z m 3.96191,101.82872 49.05722,-36.56196 c 1.42857,-1.04762 3.19048,-1.47619 4.92381,-1.2 1.73334,0.28572 3.28572,1.2381 4.3143,2.68572 6.73334,9.44763 12.03811,19.85717 15.71431,30.89528 1.04762,3.42858 -0.19048,7.15239 -3.0762,9.25716 l -68.95248,51.34293 c -1.13333,0.90476 -2.66667,1.05715 -3.95239,0.4 -1.27619,-0.66667 -2.05714,-2.01905 -1.99048,-3.47619 v -45.3334 c 0,-3.15239 1.46667,-6.1143 3.96191,-8.00001 z m -3.96191,109.58111 v -30.3429 c 0.0286,-3.46667 1.64763,-6.73334 4.40001,-8.80954 l 77.3144,-57.6477 c 0.50476,4.33334 0.78095,8.68573 0.83809,13.04764 -0.019,45.01911 -33.33338,82.92393 -77.57154,88.23822 -1.26666,0.15238 -2.54286,-0.24762 -3.49524,-1.10476 -0.95238,-0.85714 -1.49524,-2.09524 -1.48572,-3.38096 z M 864.53314,172.69549 c 0,1.29524 -0.72381,2.48571 -1.86667,3.07619 -1.14286,0.58095 -2.51429,0.47619 -3.55239,-0.29524 l -40.30482,-30.15242 c -1.59047,-1.20953 -2.62857,-3.00953 -2.87619,-5.00001 -0.24762,-1.99048 0.31429,-4 1.55238,-5.56191 6.63811,-8.00001 14.14288,-16.44764 22.53337,-25.93337 6.66667,-7.40954 13.52383,-15.03812 20.38098,-23.04765 0.66667,-0.78096 1.74286,-1.06667 2.70477,-0.71429 0.9619,0.35238 1.60952,1.27619 1.61905,2.31429 z m 0,24.70479 v 45.34293 c 0.0857,1.46666 -0.70476,2.8381 -2,3.50476 -1.28572,0.66667 -2.84763,0.50477 -3.97144,-0.42857 l -68.92391,-51.38103 c -2.86667,-2.10476 -4.11429,-5.80953 -3.11429,-9.25715 3.71429,-11.01907 9.02859,-21.41908 15.76193,-30.85719 1.01905,-1.4381 2.57143,-2.4 4.30477,-2.68572 1.73333,-0.27619 3.50477,0.15238 4.92382,1.2 l 49.02864,36.57149 c 2.51429,1.86667 4,4.8381 4,8.00001 z m -4.98096,106.06682 c -44.24768,-5.29524 -77.58106,-43.20006 -77.60964,-88.24774 0.0762,-4.35239 0.37143,-8.70478 0.88572,-13.03812 l 77.3144,57.6477 c 2.74286,2.0762 4.37143,5.33335 4.39048,8.80954 v 30.3429 c 0.01,1.29524 -0.53333,2.52382 -1.48572,3.38096 -0.95238,0.85714 -2.22857,1.25714 -3.49524,1.10476 z"
     id="path2"
     inkscape:connector-curvature="0"
     style="fill:#85c441;fill-rule:nonzero;stroke-width:9.52382278" />
</svg>
